<?xml version="1.0" standalone="no"?>
<!DOCTYPE svg PUBLIC "-//W3C//DTD SVG 20010904//EN"
 "http://www.w3.org/TR/2001/REC-SVG-20010904/DTD/svg10.dtd">
<svg version="1.0" xmlns="http://www.w3.org/2000/svg"
 width="388.000000pt" height="158.000000pt" viewBox="0 0 388.000000 158.000000"
 preserveAspectRatio="xMidYMid meet">

<g transform="translate(0.000000,158.000000) scale(0.100000,-0.100000)"
fill="#000000" stroke="none">
<path d="M966 1530 c-33 -30 -56 -43 -87 -47 -35 -5 -43 -11 -55 -38 -17 -41
-27 -45 -90 -32 -70 14 -81 8 -89 -52 -4 -33 -12 -51 -21 -51 -7 0 -20 -13
-29 -30 -14 -28 -14 -31 5 -47 30 -26 24 -36 -14 -29 -44 8 -50 1 -106 -113
l-45 -92 25 -19 c21 -16 23 -22 12 -37 -6 -10 -17 -29 -23 -43 -6 -14 -19 -42
-30 -62 -10 -20 -19 -42 -19 -48 0 -6 25 -38 57 -71 61 -64 95 -75 127 -40 14
15 30 19 71 18 50 -1 54 -3 59 -28 5 -28 14 -33 77 -43 33 -6 35 -9 31 -36 -4
-27 0 -32 32 -45 50 -21 63 -19 98 15 35 36 34 35 41 10 3 -12 14 -20 25 -20
24 0 29 -12 37 -87 5 -42 2 -68 -9 -95 -11 -26 -16 -69 -16 -136 0 -106 -11
-154 -43 -189 -11 -13 -18 -25 -15 -28 3 -3 41 -5 84 -3 74 3 77 4 60 20 -9
10 -22 33 -27 50 -12 42 -12 213 0 254 9 31 122 195 169 247 22 23 31 26 59
21 25 -5 39 -2 53 11 17 15 25 16 45 7 14 -6 31 -9 39 -6 7 3 20 -2 29 -10 22
-22 52 -20 83 7 26 23 26 24 10 50 -21 32 -14 47 23 47 34 0 57 40 41 71 -6
10 -15 19 -20 19 -17 0 -11 30 8 37 24 8 72 54 72 69 0 7 -8 17 -17 23 -13 7
-16 20 -14 54 3 50 -19 110 -54 147 -12 14 -31 43 -42 65 -15 34 -25 41 -68
54 -43 12 -47 15 -29 22 31 11 35 22 28 68 -8 51 -42 86 -97 100 -24 5 -51 19
-61 30 -10 11 -32 23 -50 26 -17 4 -54 20 -82 35 -36 20 -71 30 -126 35 l-76
7 -46 -42z m434 -244 c0 -9 -30 -14 -35 -6 -4 6 3 10 14 10 12 0 21 -2 21 -4z
m5 -296 c3 -5 1 -10 -4 -10 -6 0 -11 5 -11 10 0 6 2 10 4 10 3 0 8 -4 11 -10z
m-440 -51 c11 -17 -1 -21 -15 -4 -8 9 -8 15 -2 15 6 0 14 -5 17 -11z m-20 -39
c3 -5 1 -10 -4 -10 -6 0 -11 5 -11 10 0 6 2 10 4 10 3 0 8 -4 11 -10z m662
-46 c-3 -3 -12 -4 -19 -1 -8 3 -5 6 6 6 11 1 17 -2 13 -5z m-872 -124 c3 -5 2
-10 -4 -10 -5 0 -13 5 -16 10 -3 6 -2 10 4 10 5 0 13 -4 16 -10z m429 -87 c4
-11 -2 -25 -17 -41 -22 -22 -25 -22 -41 -7 -20 20 -21 35 -2 35 7 0 19 7 26
15 16 20 26 19 34 -2z m86 -10 c0 -18 -47 -61 -73 -67 l-28 -7 23 32 c26 36
78 63 78 42z m-70 -100 c0 -10 -64 -103 -71 -103 -3 0 -3 19 0 42 5 32 12 46
31 55 29 15 40 16 40 6z"/>
<path d="M87 453 c-3 -5 -19 -96 -36 -203 -18 -107 -34 -208 -37 -223 -6 -28
-5 -28 33 -25 38 3 38 3 41 51 l3 47 39 0 38 0 7 -50 c7 -49 8 -50 41 -50 23
0 34 5 34 15 0 14 -55 362 -66 418 -5 24 -10 27 -49 27 -24 0 -46 -3 -48 -7z
m68 -205 l7 -88 -32 0 c-32 0 -32 0 -27 43 4 23 9 74 13 112 12 126 26 102 39
-67z"/>
<path d="M290 230 l0 -230 35 0 35 0 0 101 c0 98 0 100 23 97 20 -3 23 -10 31
-100 l9 -98 40 0 c36 0 39 2 34 22 -3 13 -11 57 -17 99 -11 70 -11 77 9 110
15 24 21 51 21 92 0 106 -35 137 -156 137 l-64 0 0 -230z m138 101 c3 -68 -4
-81 -45 -81 -22 0 -23 4 -23 76 l0 75 33 -3 32 -3 3 -64z"/>
<path d="M595 448 c-2 -7 -18 -101 -35 -208 -17 -107 -33 -205 -35 -217 -5
-21 -2 -23 34 -23 l40 0 3 48 c3 46 4 47 39 50 39 3 49 -10 49 -70 0 -26 3
-28 38 -28 l38 0 -37 227 c-21 126 -38 229 -38 231 -2 9 -92 0 -96 -10z m69
-173 l12 -115 -34 0 c-33 0 -34 1 -29 33 4 17 9 66 12 107 12 141 23 134 39
-25z"/>
<path d="M800 230 l0 -230 35 0 35 0 0 230 0 230 -35 0 -35 0 0 -230z"/>
<path d="M1247 453 c-4 -3 -7 -107 -7 -230 l0 -223 95 0 95 0 0 30 c0 30 -1
30 -55 30 l-55 0 0 200 0 200 -33 0 c-19 0 -37 -3 -40 -7z"/>
<path d="M1519 458 c0 -2 -17 -105 -38 -231 l-37 -227 38 0 c35 0 38 2 38 28
0 60 10 73 49 70 35 -3 36 -4 39 -50 l3 -48 39 0 c38 0 39 1 34 28 -3 15 -19
117 -37 227 l-32 200 -48 3 c-26 2 -47 2 -48 0z m65 -160 c4 -51 10 -103 13
-115 5 -20 1 -23 -29 -23 l-34 0 12 118 c7 64 13 118 13 120 1 2 5 1 10 -2 4
-3 12 -47 15 -98z"/>
<path d="M1710 230 l0 -230 35 0 34 0 3 117 3 118 40 -115 41 -115 37 -3 37
-3 0 230 0 231 -35 0 -34 0 -3 -122 -3 -122 -24 70 c-63 181 -59 174 -97 174
l-34 0 0 -230z"/>
<path d="M1990 230 l0 -230 84 0 c82 0 85 1 110 31 26 30 26 33 26 190 0 220
-13 239 -156 239 l-64 0 0 -230z m138 -2 l2 -168 -35 0 -35 0 0 163 c0 90 3
167 7 171 4 4 19 6 33 4 l25 -3 3 -167z"/>
<path d="M2313 453 c-38 -7 -63 -50 -63 -105 0 -62 10 -80 77 -145 49 -48 53
-55 53 -98 0 -45 -1 -46 -27 -43 -23 2 -29 8 -31 36 -3 29 -6 32 -38 32 -33 0
-34 -1 -34 -39 0 -24 8 -48 21 -65 17 -22 28 -26 74 -26 29 0 61 3 70 6 38 15
58 109 36 167 -5 13 -37 50 -70 82 -50 48 -61 64 -61 90 0 62 56 74 62 13 3
-30 6 -33 41 -36 35 -3 37 -2 37 28 0 80 -58 120 -147 103z"/>
<path d="M2563 453 c-13 -2 -32 -16 -43 -30 -18 -24 -20 -40 -20 -198 0 -159
2 -174 21 -199 18 -23 28 -26 80 -26 33 0 69 4 79 10 22 12 40 61 40 111 0 39
0 39 -40 39 l-40 0 0 -51 0 -50 -32 3 -33 3 -3 154 c-3 163 2 185 42 179 18
-3 21 -11 24 -55 l3 -53 40 0 c39 0 39 0 39 40 0 67 -22 107 -67 119 -39 11
-51 12 -90 4z"/>
<path d="M3020 230 l0 -230 35 0 35 0 0 90 c0 90 0 90 25 90 14 0 41 6 60 14
27 12 36 23 46 58 13 50 7 136 -13 167 -16 26 -65 41 -135 41 l-53 0 0 -230z
m118 161 c9 -5 12 -28 10 -77 -3 -66 -4 -69 -28 -69 -24 0 -25 3 -28 64 -4 88
7 107 46 82z"/>
<path d="M3270 230 l0 -230 35 0 35 0 0 230 0 230 -35 0 -35 0 0 -230z"/>
<path d="M3390 231 l0 -231 35 0 34 0 3 117 3 118 41 -115 42 -115 36 -3 36
-3 0 230 0 231 -35 0 -35 0 -1 -122 0 -123 -43 120 -43 120 -37 3 -36 3 0
-230z"/>
<path d="M3732 449 c-55 -16 -64 -54 -60 -240 3 -151 4 -159 27 -183 21 -23
33 -26 86 -26 86 0 95 12 95 123 l0 87 -45 0 c-45 0 -45 0 -45 -35 0 -25 4
-35 16 -35 12 0 14 -9 12 -38 -3 -34 -6 -37 -35 -40 l-33 -3 0 166 c0 144 2
166 16 172 30 11 49 -11 52 -61 3 -44 5 -46 33 -46 l29 0 0 63 c0 49 -4 68
-18 80 -23 21 -88 29 -130 16z"/>
<path d="M2815 428 c-8 -37 -65 -395 -65 -412 0 -11 10 -16 34 -16 33 0 34 1
40 50 l7 50 39 0 40 0 0 -50 0 -50 41 0 c34 0 40 3 35 18 -2 9 -19 110 -37
225 l-33 207 -48 0 c-41 0 -48 -3 -53 -22z m69 -120 c4 -46 9 -98 13 -115 5
-32 4 -33 -27 -33 l-33 0 7 93 c13 162 29 185 40 55z"/>
</g>
</svg>
